<svg id="svg" version="1.1" xmlns="http://www.w3.org/2000/svg" xmlns:xlink="http://www.w3.org/1999/xlink" width="400" height="424.8803827751196" viewBox="0, 0, 400,424.8803827751196"><g id="svgg"><path id="path0" d="M194.364 7.297 C 187.332 17.068,179.835 28.493,173.444 39.179 L 168.181 47.980 160.286 51.480 C 130.959 64.485,115.720 77.415,100.897 101.875 L 97.249 107.895 83.343 107.969 C 41.051 108.194,20.505 118.391,6.651 146.027 C 0.198 158.900,0.239 158.382,0.239 227.273 C 0.239 293.556,0.167 292.417,5.320 307.024 C 8.503 316.048,18.816 329.452,27.118 335.357 C 43.865 347.270,54.217 349.751,88.623 350.100 L 111.936 350.336 116.449 355.670 C 122.119 362.373,134.891 374.953,142.105 380.942 C 153.731 390.592,183.391 413.256,195.096 421.432 L 200.000 424.857 204.904 421.432 C 216.609 413.256,246.269 390.592,257.895 380.942 C 265.109 374.953,277.881 362.373,283.551 355.670 L 288.064 350.336 311.377 350.100 C 345.783 349.751,356.135 347.270,372.882 335.357 C 381.184 329.452,391.497 316.048,394.680 307.024 C 399.833 292.417,399.761 293.556,399.761 227.273 C 399.761 158.382,399.802 158.900,393.349 146.027 C 379.495 118.391,358.949 108.194,316.657 107.969 L 302.751 107.895 299.103 101.894 C 285.055 78.786,269.603 65.089,244.836 53.791 C 241.623 52.326,238.134 50.719,237.081 50.222 C 236.029 49.724,234.401 49.014,233.465 48.644 C 231.985 48.060,231.177 46.979,227.288 40.374 C 219.481 27.115,201.154 0.000,200.000 -0.000 C 199.788 -0.000,197.252 3.283,194.364 7.297 M203.747 23.923 C 206.708 27.900,222.420 51.340,224.196 54.431 C 224.949 55.742,225.899 56.304,230.130 57.945 C 260.515 69.728,281.708 88.043,293.998 113.139 L 296.233 117.703 313.069 117.718 C 335.334 117.738,341.696 118.491,353.914 122.554 C 374.729 129.476,387.753 147.206,389.454 170.936 C 390.089 179.796,390.102 273.119,389.470 282.057 C 387.452 310.562,373.921 328.190,347.269 337.037 C 338.808 339.846,334.446 340.224,307.039 340.528 L 282.739 340.798 277.629 347.074 C 265.050 362.520,252.530 373.382,210.273 405.508 C 207.107 407.915,203.501 410.480,202.258 411.208 L 200.000 412.531 197.742 411.208 C 192.767 408.293,157.865 381.205,145.654 370.783 C 138.141 364.370,128.277 354.326,122.371 347.074 L 117.261 340.798 92.961 340.528 C 65.554 340.224,61.192 339.846,52.731 337.037 C 26.079 328.190,12.548 310.562,10.530 282.057 C 9.898 273.119,9.911 179.796,10.546 170.936 C 12.247 147.206,25.271 129.476,46.086 122.554 C 58.304 118.491,64.666 117.738,86.931 117.718 L 103.767 117.703 106.002 113.139 C 117.816 89.015,136.271 72.425,165.072 60.040 C 175.689 55.474,175.254 55.750,177.268 52.307 C 183.293 42.008,198.859 19.730,199.977 19.806 C 200.384 19.834,202.081 21.687,203.747 23.923 M200.307 52.512 C 200.144 53.499,199.993 72.715,199.972 95.215 C 199.950 117.715,199.775 136.526,199.582 137.018 C 199.328 137.662,198.384 135.593,196.196 129.601 C 190.647 114.407,173.537 77.033,172.130 77.033 C 166.913 77.033,146.137 89.406,137.626 97.582 C 129.953 104.953,116.432 125.048,118.202 126.450 C 118.323 126.546,122.081 129.125,126.555 132.182 C 140.724 141.865,153.052 152.320,163.255 163.307 C 166.478 166.778,169.443 169.869,169.844 170.176 C 172.833 172.470,168.114 170.049,156.699 163.432 C 131.107 148.600,118.672 142.052,105.742 136.604 L 99.282 133.882 82.775 134.105 C 58.698 134.429,50.147 136.372,40.332 143.751 C 34.925 147.815,29.295 156.967,27.438 164.709 C 26.397 169.051,25.824 273.941,26.790 283.525 C 29.123 306.687,42.959 320.312,67.140 323.260 C 75.289 324.254,99.141 323.959,103.510 322.811 C 108.291 321.554,115.799 315.836,118.063 311.726 C 118.701 310.570,118.291 310.069,122.353 316.986 C 136.121 340.428,154.620 358.201,193.005 384.861 C 200.961 390.387,199.039 390.387,206.995 384.861 C 245.380 358.201,263.879 340.428,277.647 316.986 C 281.709 310.069,281.299 310.570,281.937 311.726 C 284.201 315.836,291.709 321.554,296.490 322.811 C 300.859 323.959,324.711 324.254,332.860 323.260 C 357.041 320.312,370.877 306.687,373.210 283.525 C 374.176 273.941,373.603 169.051,372.562 164.709 C 370.705 156.967,365.075 147.815,359.668 143.751 C 349.853 136.372,341.302 134.429,317.225 134.105 L 300.718 133.882 294.258 136.604 C 281.328 142.052,268.893 148.600,243.301 163.432 C 231.886 170.049,227.167 172.470,230.156 170.176 C 230.557 169.869,233.522 166.778,236.745 163.307 C 246.948 152.320,259.276 141.865,273.445 132.182 C 277.919 129.125,281.677 126.546,281.798 126.450 C 282.189 126.140,277.002 116.141,274.282 111.962 C 266.290 99.679,255.779 90.309,241.715 82.931 C 232.526 78.110,231.167 77.478,224.781 75.057 C 219.080 72.895,218.064 72.346,217.008 70.855 C 214.839 67.791,201.205 50.768,200.900 50.743 C 200.737 50.729,200.470 51.525,200.307 52.512 M111.722 168.458 C 117.880 169.544,132.483 176.014,150.718 185.736 C 176.429 199.443,184.695 203.473,186.500 203.181 C 188.821 202.804,191.613 200.840,193.168 198.491 C 194.660 196.236,195.070 196.712,195.168 200.806 C 195.292 206.028,198.294 214.593,200.000 214.593 C 201.706 214.593,204.708 206.028,204.832 200.806 C 204.930 196.712,205.340 196.236,206.832 198.491 C 208.387 200.840,211.179 202.804,213.500 203.181 C 215.305 203.473,223.571 199.443,249.282 185.736 C 280.848 168.908,283.958 167.951,307.252 167.918 C 328.338 167.888,331.340 168.430,334.596 172.858 C 337.201 176.398,337.081 173.649,337.081 230.144 L 337.081 282.536 335.940 284.833 C 333.389 289.972,331.702 290.431,315.359 290.431 C 302.888 290.431,301.987 290.371,299.163 289.358 L 296.172 288.286 296.172 269.980 L 296.172 251.675 297.303 251.675 C 297.925 251.675,299.571 251.890,300.961 252.154 C 302.687 252.481,303.678 252.476,304.086 252.137 C 305.871 250.656,322.967 223.531,322.967 222.181 C 322.967 222.087,316.992 222.010,309.689 222.010 L 296.411 222.010 296.551 207.297 L 296.691 192.584 292.848 188.038 C 290.734 185.538,289.003 183.331,289.000 183.134 C 288.987 182.205,288.037 182.909,288.031 183.852 C 288.025 184.722,287.935 184.791,287.560 184.211 C 287.246 183.725,287.091 185.348,287.080 189.234 C 287.049 200.843,285.884 207.343,282.664 213.876 C 281.562 216.112,280.563 218.158,280.444 218.421 C 280.325 218.684,280.626 218.577,281.115 218.182 C 282.514 217.050,281.645 218.331,278.145 222.561 C 272.704 229.136,251.687 246.890,249.344 246.890 C 247.092 246.890,242.571 245.920,237.047 244.252 C 214.269 237.374,185.731 237.374,162.953 244.252 C 157.429 245.920,152.908 246.890,150.656 246.890 C 148.313 246.890,127.296 229.136,121.855 222.561 C 118.355 218.331,117.486 217.050,118.885 218.182 C 119.374 218.577,119.675 218.684,119.556 218.421 C 119.437 218.158,118.438 216.112,117.336 213.876 C 114.116 207.343,112.951 200.843,112.920 189.234 C 112.909 185.348,112.754 183.725,112.440 184.211 C 112.065 184.791,111.975 184.722,111.969 183.852 C 111.963 182.909,111.013 182.205,111.000 183.134 C 110.997 183.331,109.266 185.538,107.152 188.038 L 103.309 192.584 103.449 207.297 L 103.589 222.010 90.311 222.010 C 83.008 222.010,77.033 222.087,77.033 222.181 C 77.033 223.531,94.129 250.656,95.914 252.137 C 96.322 252.476,97.313 252.481,99.039 252.154 C 100.429 251.890,102.075 251.675,102.697 251.675 L 103.828 251.675 103.828 269.980 L 103.828 288.286 100.837 289.358 C 98.013 290.371,97.112 290.431,84.641 290.431 C 68.298 290.431,66.611 289.972,64.060 284.833 L 62.919 282.536 62.919 229.904 L 62.919 177.273 64.049 174.997 C 66.542 169.979,70.023 168.367,79.187 167.983 C 88.835 167.580,108.362 167.865,111.722 168.458 M132.057 190.218 C 132.057 190.615,132.396 191.740,132.810 192.719 C 133.224 193.697,134.101 197.297,134.760 200.718 C 138.047 217.800,146.430 225.484,160.960 224.733 C 167.823 224.378,179.882 220.672,179.322 219.089 C 179.165 218.648,164.047 209.199,159.091 206.445 C 157.249 205.422,153.696 203.263,151.196 201.649 C 137.162 192.587,132.057 189.538,132.057 190.218 M255.833 197.167 C 249.305 201.329,242.522 205.538,240.761 206.520 C 235.841 209.265,220.830 218.660,220.678 219.089 C 220.118 220.672,232.177 224.378,239.040 224.733 C 253.338 225.472,262.065 217.658,265.061 201.435 C 265.620 198.409,266.519 194.707,267.058 193.208 C 267.598 191.709,267.964 190.284,267.872 190.042 C 267.779 189.799,262.362 193.005,255.833 197.167 M142.077 266.314 C 145.285 269.743,145.232 269.550,145.687 279.426 C 146.615 299.548,148.637 319.225,150.500 326.268 C 152.006 331.959,151.911 332.001,148.189 327.294 C 139.152 315.866,135.845 304.953,130.855 270.096 C 129.650 261.675,128.535 254.357,128.379 253.835 C 128.073 252.817,137.395 261.308,142.077 266.314 M271.018 257.416 C 270.659 259.653,269.365 268.373,268.142 276.794 C 264.126 304.464,260.155 316.743,251.811 327.294 C 248.089 332.001,247.994 331.959,249.500 326.268 C 251.363 319.225,253.385 299.548,254.313 279.426 C 254.819 268.442,253.932 270.256,263.266 261.127 C 267.771 256.721,271.506 253.169,271.564 253.233 C 271.623 253.297,271.377 255.179,271.018 257.416 M227.836 259.407 C 234.010 262.302,234.075 262.732,233.884 299.761 L 233.732 329.426 232.376 332.187 C 230.553 335.900,223.312 341.475,206.956 351.759 C 199.259 356.599,200.523 356.853,186.842 347.714 C 164.007 332.461,166.311 337.792,166.116 299.761 C 165.881 254.185,162.710 257.930,201.435 258.057 L 225.120 258.134 227.836 259.407 M179.426 298.313 L 179.426 326.794 186.607 326.794 L 193.787 326.794 193.664 298.445 L 193.541 270.096 186.483 269.963 L 179.426 269.831 179.426 298.313 M206.539 270.175 C 206.364 270.351,206.220 283.162,206.220 298.644 L 206.220 326.794 213.397 326.794 L 220.574 326.794 220.574 298.325 L 220.574 269.856 213.716 269.856 C 209.944 269.856,206.715 270.000,206.539 270.175 " stroke="none" fill="#000000" fill-rule="evenodd"></path></g></svg>