<?xml version="1.0" standalone="no"?>
<!DOCTYPE svg PUBLIC "-//W3C//DTD SVG 20010904//EN"
 "http://www.w3.org/TR/2001/REC-SVG-20010904/DTD/svg10.dtd">
<svg version="1.0" xmlns="http://www.w3.org/2000/svg"
 width="300.000000pt" height="333.000000pt" viewBox="0 0 300.000000 333.000000"
 preserveAspectRatio="xMidYMid meet">
<metadata>
Created by potrace 1.10, written by Peter Selinger 2001-2011
</metadata>
<g transform="translate(0.000000,333.000000) scale(0.100000,-0.100000)"
fill="#000000" stroke="none">
<path d="M702 3312 c-8 -5 -34 -7 -58 -4 -27 3 -50 0 -59 -8 -8 -7 -35 -13
-60 -14 -37 -1 -52 -8 -82 -38 -30 -28 -41 -34 -54 -26 -20 13 -81 -24 -158
-96 -100 -95 -173 -216 -206 -341 -22 -87 -22 -843 0 -929 66 -251 265 -454
515 -523 102 -28 322 -25 415 6 104 34 178 77 254 147 58 54 151 175 151 197
0 19 -21 3 -35 -27 -66 -138 -279 -298 -430 -320 -32 -5 -28 -2 25 17 155 55
284 152 366 274 22 32 56 74 77 94 38 37 48 69 22 69 -8 0 -15 3 -15 6 0 10
23 49 35 59 19 16 26 55 9 55 -18 0 -18 21 1 46 16 22 20 58 5 49 -6 -3 -10 5
-10 19 0 14 5 28 10 31 6 3 10 15 10 26 0 10 -4 19 -10 19 -13 0 -13 47 0 55
5 3 10 15 10 26 0 11 -4 17 -10 14 -6 -3 -10 5 -10 19 0 14 5 28 10 31 6 3 10
15 10 26 0 10 -4 19 -10 19 -5 0 -10 11 -10 24 0 14 5 28 10 31 6 3 10 15 10
26 0 11 -4 17 -10 14 -6 -3 -10 5 -10 19 0 14 5 28 10 31 15 10 12 25 -6 25
-11 0 -14 6 -9 20 11 35 -3 60 -35 60 -16 0 -32 -5 -35 -10 -4 -7 -11 -8 -18
-2 -16 13 -255 13 -263 1 -4 -6 -10 -6 -17 0 -7 5 -87 8 -182 8 l-170 -2 -3
-209 c-1 -139 1 -213 8 -220 6 -6 65 -13 132 -16 l121 -5 -3 -75 c-2 -41 -4
-94 -5 -118 -1 -36 -8 -49 -50 -92 -41 -41 -52 -48 -76 -43 -16 3 -41 -2 -59
-11 -24 -11 -37 -13 -51 -5 -11 5 -27 9 -37 8 -25 -3 -83 26 -112 55 -42 42
-50 55 -56 86 -4 16 -10 30 -14 30 -11 0 -9 33 3 59 9 19 9 25 0 28 -15 5 -17
49 -3 58 6 3 10 15 10 26 0 10 -4 19 -10 19 -13 0 -13 37 0 45 13 8 13 45 0
45 -5 0 -10 11 -10 24 0 14 5 28 10 31 6 3 10 15 10 26 0 10 -4 19 -10 19 -5
0 -10 9 -10 19 0 11 5 23 10 26 6 3 10 15 10 26 0 10 -4 19 -10 19 -5 0 -10 9
-10 19 0 11 4 23 10 26 13 8 13 55 0 55 -5 0 -10 9 -10 19 0 11 5 23 10 26 6
3 10 15 10 26 0 10 -4 19 -10 19 -15 0 -12 36 5 50 17 14 21 65 5 55 -5 -3
-10 -1 -10 4 0 6 7 11 15 11 8 0 23 17 34 39 33 64 105 115 178 127 79 12 172
-36 210 -110 27 -53 43 -63 88 -56 51 8 193 80 224 114 16 17 35 26 55 26 45
0 77 11 73 24 -3 6 -9 10 -15 9 -7 -2 -9 8 -6 26 4 16 1 32 -5 35 -6 4 -18 23
-26 42 -8 19 -19 34 -24 34 -6 0 -11 5 -11 11 0 31 -180 192 -240 215 -8 3
-27 12 -42 20 -14 8 -35 14 -46 14 -12 0 -23 4 -26 9 -6 9 -45 17 -116 26 -19
3 -46 7 -60 10 -14 3 -31 1 -38 -3z m-262 -247 c-160 -160 -210 -216 -198
-220 12 -5 80 57 245 219 125 124 236 226 246 226 9 0 17 -2 17 -4 0 -2 -47
-50 -105 -106 -58 -57 -103 -105 -102 -107 2 -2 19 2 37 9 20 7 69 48 123 105
51 52 98 93 108 93 11 0 19 -3 19 -7 0 -4 -37 -45 -82 -90 -72 -72 -79 -83
-58 -83 17 0 49 24 106 81 62 62 87 80 100 75 15 -6 4 -20 -61 -86 -73 -73
-77 -80 -53 -80 20 0 43 19 97 76 52 56 76 74 88 70 13 -6 2 -21 -56 -80 -60
-61 -70 -74 -55 -80 13 -5 36 11 90 65 45 45 76 69 84 64 8 -5 -10 -30 -55
-75 -59 -60 -74 -90 -45 -90 4 0 39 31 76 70 54 56 70 68 81 58 12 -9 2 -23
-52 -78 -51 -52 -63 -68 -53 -78 10 -10 27 2 80 55 50 50 71 64 79 56 8 -8 -6
-27 -55 -73 -68 -65 -76 -77 -52 -86 8 -3 40 22 77 60 50 51 66 63 77 54 10
-9 0 -25 -55 -80 -54 -54 -65 -70 -55 -80 11 -11 26 0 79 55 47 48 69 65 77
57 7 -7 -10 -31 -58 -79 -51 -52 -67 -74 -62 -87 6 -15 18 -6 76 51 55 55 72
67 82 57 10 -10 0 -25 -47 -73 -45 -46 -84 -73 -159 -110 -54 -27 -100 -49
-102 -49 -2 0 -13 18 -23 39 -41 79 -145 142 -235 141 -115 -2 -231 -93 -252
-197 -4 -21 -38 -62 -110 -134 -77 -76 -104 -110 -104 -129 0 -21 13 -11 100
75 76 76 100 95 100 79 0 -14 -36 -57 -100 -119 -80 -79 -100 -104 -100 -127
0 -26 8 -20 100 74 86 90 99 100 100 78 0 -19 -25 -51 -100 -125 -73 -73 -100
-106 -100 -125 0 -21 13 -11 100 75 73 73 100 94 100 80 0 -12 -40 -60 -100
-120 -73 -73 -100 -106 -100 -125 0 -21 13 -11 100 75 87 86 100 96 100 75 0
-19 -27 -52 -100 -125 -74 -74 -100 -106 -100 -125 0 -22 13 -13 97 73 53 53
98 97 99 97 2 0 4 -8 4 -18 0 -9 -45 -62 -100 -117 -68 -68 -100 -107 -100
-122 0 -13 2 -23 4 -23 3 0 48 44 100 98 83 85 96 94 96 72 0 -19 -25 -50 -95
-120 -82 -81 -115 -130 -88 -130 4 0 47 39 95 87 66 65 88 82 88 68 0 -12 -35
-55 -85 -105 -47 -47 -85 -90 -85 -97 0 -32 25 -17 91 52 61 64 74 73 82 59 7
-13 -7 -32 -69 -95 -63 -63 -76 -81 -66 -91 11 -11 26 0 79 55 48 49 68 64 74
55 6 -9 -12 -34 -56 -78 -36 -36 -65 -71 -65 -77 0 -30 23 -18 83 44 53 55 67
64 72 51 5 -12 -11 -35 -55 -78 -50 -51 -59 -64 -49 -76 10 -13 23 -5 79 51
46 45 70 63 75 55 5 -7 -16 -35 -54 -74 -48 -49 -59 -64 -49 -74 10 -10 26 2
79 54 52 51 72 65 86 60 15 -7 7 -18 -51 -73 -54 -50 -66 -67 -55 -74 8 -5 16
-9 19 -9 3 0 37 32 75 70 62 63 95 84 95 62 0 -4 -29 -37 -65 -72 -36 -35 -65
-68 -65 -72 0 -26 45 2 115 71 50 50 91 82 110 86 26 6 17 -5 -63 -82 -87 -83
-99 -103 -65 -103 8 0 89 74 181 165 128 128 163 168 152 175 -8 5 -18 6 -24
3 -5 -4 -6 3 -2 18 5 13 10 70 13 127 l5 102 -136 0 -136 0 0 190 c0 172 8
228 23 168 l6 -22 24 22 c13 12 34 22 48 22 24 -1 23 -1 -9 -31 -28 -25 -31
-33 -21 -45 11 -13 19 -9 58 30 26 26 54 46 64 46 9 0 17 -2 17 -5 0 -2 -22
-25 -50 -51 -27 -26 -50 -53 -50 -60 0 -31 23 -19 86 46 49 51 74 70 93 70 23
0 17 -9 -57 -83 -67 -68 -81 -86 -70 -95 11 -9 34 8 108 83 57 57 103 95 115
95 14 0 -5 -25 -75 -95 -82 -83 -91 -95 -70 -95 19 0 51 26 120 95 70 71 101
95 120 95 22 -1 12 -13 -73 -95 -86 -84 -94 -95 -71 -95 19 0 50 24 122 95 57
57 104 95 116 95 15 0 -4 -24 -74 -95 -82 -83 -91 -95 -70 -95 19 0 51 26 120
95 85 85 120 111 120 87 0 -4 -47 -54 -105 -112 -72 -71 -105 -112 -105 -127
0 -13 2 -23 4 -23 3 0 50 46 105 103 87 89 101 99 101 77 0 -19 -27 -52 -105
-130 -77 -77 -105 -111 -105 -130 0 -21 14 -10 105 80 82 82 105 100 105 83 0
-14 -36 -56 -105 -124 -74 -72 -105 -109 -105 -126 0 -12 2 -23 3 -23 2 0 50
46 105 103 88 89 102 99 102 77 0 -19 -27 -52 -105 -130 -77 -77 -105 -111
-105 -130 0 -21 14 -10 105 80 77 77 105 99 105 85 0 -12 -42 -62 -106 -125
-92 -91 -134 -149 -134 -182 0 -5 54 47 120 114 105 108 119 120 120 97 0 -21
-24 -50 -110 -132 -97 -94 -107 -108 -91 -116 16 -9 32 3 105 79 48 50 89 90
92 90 19 0 -19 -56 -80 -118 -57 -59 -68 -74 -56 -82 11 -7 27 2 64 38 48 46
48 47 42 17 -4 -16 -17 -40 -28 -52 -11 -12 -17 -26 -14 -31 9 -15 -68 -126
-132 -189 -72 -70 -163 -126 -252 -155 -89 -29 -281 -36 -371 -14 -216 54
-392 214 -478 434 l-26 67 0 440 0 440 29 78 c22 61 32 77 44 72 11 -4 68 46
191 169 97 96 188 180 204 185 15 6 27 9 27 7 0 -2 -85 -89 -189 -194 -104
-105 -186 -193 -183 -196 17 -18 54 13 234 195 178 179 233 226 248 212 2 -2
-92 -100 -210 -218z m-186 1 c-70 -69 -129 -125 -131 -122 -5 4 59 90 101 134
35 38 147 125 153 119 2 -2 -54 -61 -123 -131z m1056 -156 c0 -11 -33 -30 -51
-30 -8 0 -5 7 6 20 19 21 45 27 45 10z"/>
<path d="M266 2779 c-9 -23 -15 -43 -13 -45 2 -2 19 12 38 32 28 29 31 36 19
44 -23 15 -27 13 -44 -31z"/>
<path d="M296 2731 c-37 -38 -56 -65 -56 -81 0 -22 8 -16 70 45 39 38 70 72
70 76 0 4 -6 9 -14 12 -8 3 -37 -19 -70 -52z"/>
<path d="M323 2666 c-65 -64 -83 -88 -83 -110 0 -26 8 -20 105 75 57 56 102
106 99 110 -12 21 -44 1 -121 -75z"/>
<path d="M874 1699 c-134 -134 -155 -159 -134 -159 19 0 61 36 173 148 81 81
147 150 147 154 0 3 -6 8 -14 11 -8 3 -76 -58 -172 -154z"/>
<path d="M961 1695 c-122 -122 -145 -156 -84 -122 11 7 74 63 138 126 87 84
114 116 104 122 -8 5 -16 9 -19 9 -3 0 -66 -61 -139 -135z"/>
<path d="M2241 3311 c-7 -5 -31 -6 -52 -4 -28 4 -45 1 -57 -10 -10 -10 -27
-14 -39 -11 -32 9 -89 -14 -116 -45 -18 -22 -26 -25 -39 -17 -43 27 -248 -161
-294 -271 -8 -17 -18 -34 -24 -38 -5 -3 -22 -43 -37 -88 l-28 -82 0 -425 0
-425 27 -80 c104 -305 378 -504 694 -505 193 0 353 58 485 177 46 42 139 168
139 190 0 22 -15 14 -26 -14 -34 -88 -164 -213 -284 -273 -60 -30 -168 -65
-176 -57 -3 3 10 8 28 12 55 12 169 69 235 118 65 48 146 139 184 206 12 22
25 38 29 36 10 -6 37 25 49 58 9 22 8 27 -4 27 -22 0 -18 25 10 58 25 30 33
62 15 62 -15 0 -12 36 5 50 19 16 20 50 1 50 -9 0 -12 8 -8 25 2 14 8 25 13
25 5 0 9 9 9 20 0 11 -6 20 -14 20 -15 0 -11 46 5 56 14 8 10 44 -5 44 -9 0
-12 8 -8 25 2 14 8 25 13 25 5 0 9 9 9 20 0 11 -6 20 -14 20 -15 0 -11 46 5
56 14 8 10 44 -5 44 -9 0 -12 8 -8 25 2 14 8 25 13 25 5 0 9 5 9 10 0 6 -9 10
-20 10 -17 0 -18 3 -8 25 8 19 8 28 -2 40 -14 17 -56 20 -65 5 -4 -7 -11 -8
-18 -2 -17 14 -618 13 -634 0 -10 -8 -13 -62 -13 -208 0 -245 -10 -230 153
-230 l117 0 0 -67 c0 -38 -5 -85 -11 -107 -8 -27 -8 -41 0 -49 8 -8 -3 -26
-41 -64 -43 -44 -55 -51 -79 -46 -16 3 -41 -2 -59 -11 -23 -11 -37 -13 -50 -6
-10 6 -30 10 -43 10 -60 0 -167 91 -167 142 0 15 -4 28 -10 28 -5 0 -10 11
-10 24 0 14 5 28 10 31 15 9 12 35 -4 35 -15 0 -11 46 5 56 12 7 11 44 -1 44
-14 0 -12 36 3 61 10 17 10 23 0 26 -15 6 -17 49 -3 58 6 3 10 15 10 26 0 10
-4 19 -10 19 -5 0 -10 11 -10 25 0 14 5 25 10 25 6 0 10 9 10 20 0 11 -4 20
-10 20 -5 0 -10 11 -10 24 0 14 5 28 10 31 6 3 10 15 10 26 0 10 -4 19 -10 19
-5 0 -10 11 -10 25 0 14 5 25 10 25 6 0 10 9 10 20 0 11 -4 20 -10 20 -15 0
-11 42 5 64 20 26 19 50 0 42 -8 -3 -15 -1 -15 4 0 6 9 10 19 10 11 0 23 9 26
21 21 65 142 149 216 149 51 0 139 -48 166 -90 51 -81 59 -88 100 -80 55 10
204 83 232 114 17 18 35 26 58 26 39 0 76 17 68 30 -3 5 -13 6 -21 3 -14 -5
-14 -3 -3 15 12 18 10 25 -9 51 -12 17 -22 32 -22 35 0 16 -60 89 -124 150
-73 70 -195 146 -235 146 -11 0 -22 4 -25 9 -6 9 -53 19 -121 26 -22 2 -51 7
-65 10 -14 3 -31 1 -39 -4z m49 -29 c0 -4 -45 -52 -100 -107 -54 -54 -98 -100
-96 -102 12 -13 85 40 161 116 49 50 98 91 107 91 10 0 18 -2 18 -5 0 -3 -39
-43 -87 -90 -83 -81 -85 -85 -57 -85 24 0 45 16 109 80 72 73 105 95 105 71 0
-4 -31 -40 -70 -78 -38 -39 -70 -73 -70 -77 0 -24 46 5 111 70 60 60 80 74 93
67 14 -8 4 -21 -57 -81 -66 -64 -72 -72 -53 -78 17 -6 33 7 88 66 50 52 73 70
85 66 13 -6 2 -21 -56 -80 -60 -61 -70 -74 -55 -80 13 -5 36 11 90 65 55 55
75 69 79 57 4 -10 -16 -36 -60 -79 -57 -54 -64 -65 -51 -77 12 -12 23 -5 81
57 55 58 70 69 82 59 12 -9 3 -23 -54 -80 -53 -53 -65 -70 -55 -80 10 -10 27
2 80 55 61 60 82 72 82 45 0 -4 -29 -35 -64 -69 -39 -37 -62 -67 -59 -75 9
-23 18 -17 87 54 54 54 68 64 76 52 7 -12 -6 -31 -60 -85 -53 -53 -67 -74 -60
-85 8 -12 22 -2 77 53 38 37 72 67 76 67 21 0 0 -33 -60 -92 -52 -50 -89 -75
-157 -107 -49 -22 -90 -41 -92 -41 -2 0 -4 6 -4 14 0 27 -69 102 -118 129
-126 69 -275 31 -351 -89 -16 -24 -32 -60 -35 -78 -5 -26 -30 -56 -105 -128
-62 -60 -100 -104 -103 -121 -3 -15 -2 -27 1 -27 4 0 47 43 97 95 49 52 92 95
97 95 27 1 -7 -48 -92 -135 -64 -65 -101 -111 -105 -130 -6 -26 7 -16 98 75
94 92 106 102 106 79 0 -20 -24 -49 -99 -121 -56 -54 -101 -107 -105 -122 -3
-14 -4 -26 -1 -26 3 0 47 43 97 95 49 52 94 95 99 95 29 0 -3 -47 -90 -134
-55 -54 -101 -109 -104 -122 -2 -13 -2 -24 2 -24 3 0 50 44 103 97 80 79 98
93 98 75 0 -15 -31 -53 -99 -118 -63 -60 -101 -105 -104 -122 -3 -15 -4 -28
-2 -30 2 -2 45 40 95 92 51 53 97 96 101 96 29 0 -4 -48 -91 -135 -73 -73
-100 -106 -100 -125 0 -21 13 -11 100 75 73 73 100 94 100 80 0 -12 -39 -60
-99 -119 -72 -72 -97 -103 -94 -117 3 -10 7 -19 9 -19 2 0 40 38 85 85 45 47
86 85 90 85 28 0 -1 -46 -76 -120 -73 -73 -104 -120 -78 -120 4 0 43 35 85 77
66 66 78 74 78 54 0 -15 -22 -44 -70 -89 -38 -36 -70 -71 -70 -78 0 -31 23
-20 81 41 34 36 66 65 71 65 25 0 0 -45 -58 -100 -56 -54 -63 -65 -52 -77 12
-12 24 -4 78 52 44 47 66 63 74 55 7 -7 -8 -29 -54 -75 -51 -51 -62 -67 -52
-77 10 -10 26 1 77 52 52 52 67 62 77 52 11 -11 1 -25 -50 -74 -51 -49 -60
-63 -51 -75 10 -12 23 -3 80 53 42 41 71 64 79 59 8 -5 -8 -28 -50 -70 -55
-55 -69 -85 -40 -85 4 0 39 31 76 70 59 61 104 88 104 62 0 -5 -31 -39 -70
-76 -38 -37 -70 -70 -70 -72 0 -2 10 -4 22 -4 14 0 53 31 109 85 47 47 95 85
105 85 13 0 -8 -27 -69 -88 -48 -48 -87 -91 -87 -95 0 -30 59 17 205 163 162
162 175 181 121 171 -5 -1 -5 6 0 16 5 10 10 66 12 126 l3 107 -135 0 -136 0
0 190 c0 165 2 190 16 190 8 0 13 -4 10 -9 -3 -5 0 -14 8 -20 10 -8 17 -6 31
9 16 18 55 28 55 14 0 -3 -14 -17 -31 -31 -27 -23 -29 -27 -15 -41 14 -14 19
-11 57 31 29 34 48 47 67 47 25 0 23 -3 -31 -58 -47 -48 -55 -61 -44 -70 10
-9 28 3 82 58 47 47 77 70 93 70 19 0 9 -13 -60 -79 -67 -64 -81 -82 -70 -92
10 -11 30 4 106 80 71 70 98 92 115 89 20 -3 10 -15 -68 -92 -50 -49 -91 -90
-91 -92 0 -2 10 -4 23 -4 15 0 53 31 117 95 52 52 103 95 112 95 10 0 18 -2
18 -4 0 -2 -42 -44 -92 -94 -82 -80 -90 -92 -68 -92 19 0 50 25 120 95 70 71
101 95 120 95 22 -1 12 -13 -73 -95 -89 -87 -95 -95 -70 -95 22 0 49 22 123
95 85 85 120 110 120 87 0 -4 -47 -54 -105 -112 -77 -77 -105 -111 -105 -130
0 -21 14 -10 105 80 88 87 105 101 105 81 0 -17 -30 -53 -105 -126 -81 -78
-105 -108 -105 -128 0 -23 11 -15 98 73 54 55 101 100 105 100 27 0 -8 -50
-98 -140 -77 -77 -105 -111 -105 -130 0 -21 14 -10 105 80 80 79 105 100 105
84 0 -13 -38 -59 -104 -123 -74 -74 -105 -111 -108 -132 -3 -16 -3 -29 0 -29
2 0 47 45 99 100 53 55 100 100 104 100 29 0 -5 -49 -105 -150 -73 -74 -118
-128 -125 -150 -10 -31 4 -19 114 90 90 90 125 119 125 105 0 -12 -43 -63
-110 -130 -60 -60 -110 -113 -110 -117 0 -3 8 -8 17 -10 10 -2 50 31 105 87
78 80 87 87 88 64 0 -19 -19 -44 -74 -97 -66 -64 -72 -73 -56 -82 15 -8 26 -2
59 37 23 25 44 44 46 41 9 -9 -11 -52 -33 -71 -11 -11 -18 -25 -15 -33 8 -21
-41 -97 -108 -169 -89 -95 -209 -164 -341 -196 -76 -18 -280 -7 -358 20 -201
70 -353 224 -427 436 l-28 80 0 415 0 415 30 85 c26 71 34 85 52 85 15 0 79
57 201 178 107 106 186 177 198 177 13 0 -42 -61 -171 -190 -153 -153 -186
-190 -171 -196 14 -5 63 38 225 200 164 164 213 207 230 204 19 -2 -14 -39
-192 -216 -186 -184 -212 -214 -196 -222 15 -8 25 -1 61 42 24 29 63 71 88 93
24 22 107 102 184 178 123 122 166 155 166 129z m-485 -212 c-71 -71 -131
-128 -133 -125 -14 14 123 164 208 228 75 57 49 22 -75 -103z m1055 -159 c0
-7 -44 -31 -57 -31 -4 0 4 11 17 25 21 22 40 25 40 6z"/>
<path d="M1814 2785 c-22 -54 -17 -59 21 -19 19 20 35 38 35 39 0 2 -9 5 -21
8 -16 4 -24 -1 -35 -28z"/>
<path d="M1844 2737 c-43 -45 -75 -107 -55 -107 4 0 38 32 76 70 57 57 67 72
55 80 -21 13 -19 14 -76 -43z"/>
<path d="M1878 2672 c-74 -75 -112 -132 -89 -132 8 0 201 193 201 202 0 3 -6
8 -14 11 -8 3 -48 -30 -98 -81z"/>
<path d="M2419 1699 c-134 -137 -152 -159 -130 -159 20 0 59 34 174 151 109
111 145 154 135 160 -7 5 -15 8 -18 8 -3 -1 -75 -73 -161 -160z"/>
<path d="M2509 1693 c-74 -75 -126 -133 -116 -129 10 3 23 6 29 6 12 0 248
230 248 241 0 4 -6 9 -14 12 -8 3 -67 -49 -147 -130z"/>
<path d="M2040 1153 c-14 -3 -31 -10 -38 -16 -9 -7 -16 -7 -24 1 -18 18 -69
14 -91 -5 -18 -17 -19 -17 -28 0 -12 21 -72 23 -89 2 -16 -19 -27 -19 -46 0
-17 17 -59 11 -85 -12 -14 -12 -18 -11 -29 2 -17 20 -69 19 -92 -2 -17 -15
-19 -15 -36 0 -23 21 -51 22 -81 1 -17 -12 -26 -13 -34 -5 -16 16 -82 14 -97
-4 -12 -14 -15 -14 -30 0 -21 19 -74 19 -90 0 -12 -14 -15 -14 -30 0 -21 19
-69 19 -90 0 -15 -13 -20 -13 -47 0 -33 17 -76 8 -86 -17 -5 -10 -9 -9 -17 5
-14 22 -82 23 -100 2 -12 -14 -15 -14 -30 0 -19 17 -51 20 -65 6 -6 -6 -8 -71
-5 -158 l5 -148 40 -37 c22 -21 47 -36 55 -33 8 2 173 7 365 10 193 4 352 8
355 10 3 1 169 6 370 10 201 4 394 10 430 14 61 6 65 8 68 32 2 15 -4 34 -14
44 -14 14 -15 21 -6 36 17 26 15 69 -3 89 -14 15 -14 18 0 30 28 23 18 73 -23
113 -42 42 -48 43 -72 22 -15 -14 -18 -14 -30 0 -16 20 -64 19 -84 -1 -14 -14
-18 -14 -38 0 -12 9 -25 15 -28 15 -3 -1 -16 -4 -30 -6z m40 -20 c0 -4 -30
-38 -67 -75 l-67 -68 36 0 c32 0 43 8 98 70 57 64 101 93 117 76 4 -4 -24 -38
-63 -77 l-69 -70 37 6 c29 6 54 24 108 79 68 69 70 70 70 41 0 -23 -13 -43
-57 -87 -55 -55 -57 -59 -40 -75 17 -17 20 -16 55 25 20 23 40 42 45 42 19 0
4 -49 -23 -75 -28 -27 -29 -30 -13 -47 12 -14 19 -15 30 -7 10 9 13 6 13 -14
0 -24 -3 -26 -42 -24 -44 2 -327 -5 -1093 -27 -242 -7 -443 -12 -447 -10 -3 2
-7 67 -7 144 -2 124 0 140 15 140 10 0 14 -5 11 -14 -3 -8 1 -20 9 -27 12 -10
20 -7 42 14 18 17 39 27 58 27 l29 -1 -42 -40 c-24 -22 -43 -42 -43 -44 0 -2
9 -9 20 -15 18 -10 27 -4 71 44 41 45 57 56 82 56 l31 0 -69 -70 c-67 -68 -69
-70 -40 -70 22 0 46 17 106 75 46 45 85 75 98 75 11 0 21 -3 21 -7 0 -4 -30
-38 -68 -76 l-67 -68 39 7 c30 5 52 21 105 76 51 54 72 69 89 67 21 -4 17 -10
-40 -71 l-63 -68 30 0 c24 0 44 14 100 70 51 52 76 70 96 70 25 0 21 -5 -44
-70 l-70 -70 34 0 c28 0 45 11 110 76 56 55 82 75 98 72 18 -3 13 -11 -44 -68
-35 -36 -65 -69 -65 -73 0 -5 15 -6 33 -2 21 5 56 30 102 76 49 47 78 69 95
69 22 0 17 -8 -45 -70 l-69 -70 35 0 c30 0 44 10 103 69 38 38 79 71 92 74 13
2 24 2 24 -2 0 -3 -30 -36 -67 -73 l-67 -68 34 0 c31 0 45 10 108 75 55 57 79
75 100 75 25 0 21 -5 -48 -76 l-75 -76 40 7 c32 5 55 21 110 76 49 47 78 69
95 69 22 0 17 -8 -45 -70 l-69 -70 34 0 c30 0 43 9 98 69 34 38 72 72 85 74
12 2 25 5 30 6 4 0 7 -2 7 -6z m260 -76 c0 -7 -7 -22 -15 -33 -12 -16 -16 -17
-24 -4 -7 10 -5 20 6 32 19 21 33 23 33 5z m0 -125 c0 -10 -6 -27 -14 -37 -13
-18 -14 -18 -21 4 -4 13 -2 28 5 36 17 20 30 19 30 -3z m-25 -102 c4 -6 11 -8
16 -5 5 4 9 -1 9 -9 0 -13 -13 -16 -67 -16 -38 0 -140 -2 -228 -5 -1223 -37
-1272 -38 -1280 -25 -4 6 -5 13 -3 15 2 2 174 9 383 15 458 14 1135 37 1152
39 6 0 15 -4 18 -9z"/>
<path d="M2065 442 c-16 -2 -37 -10 -46 -18 -15 -13 -17 -13 -22 1 -8 20 -65
20 -88 -1 -17 -15 -19 -15 -34 0 -21 20 -69 21 -85 1 -16 -19 -27 -19 -46 0
-21 21 -54 19 -79 -5 -20 -18 -23 -19 -35 -5 -17 20 -69 19 -92 -2 -17 -15
-19 -15 -36 0 -23 21 -60 22 -83 1 -16 -14 -20 -14 -43 1 -27 18 -58 14 -87
-11 -14 -13 -18 -12 -29 1 -16 19 -74 19 -90 0 -12 -14 -15 -14 -30 0 -22 20
-69 19 -91 -1 -16 -14 -20 -14 -42 1 -28 18 -72 12 -85 -12 -7 -12 -10 -12
-21 1 -17 21 -84 21 -101 1 -12 -14 -15 -14 -30 0 -20 18 -56 20 -66 4 -4 -7
-6 -75 -5 -153 l2 -141 42 -41 42 -41 788 23 c433 12 795 25 802 28 20 7 19
45 -2 68 -14 16 -15 23 -5 38 17 27 15 70 -3 90 -14 15 -14 18 0 30 28 23 18
73 -23 113 -42 42 -48 43 -72 22 -15 -14 -18 -14 -30 0 -16 19 -64 19 -84 0
-13 -14 -19 -14 -38 -2 -13 7 -36 11 -53 9z m155 -18 c0 -3 -30 -37 -67 -75
l-66 -69 34 6 c24 5 55 27 107 77 70 70 72 71 72 42 0 -22 -14 -43 -56 -86
-54 -55 -56 -58 -39 -75 17 -17 19 -16 54 24 20 23 39 42 44 42 19 0 4 -49
-23 -75 -28 -27 -29 -30 -13 -47 12 -14 19 -15 30 -7 10 9 13 6 13 -12 0 -23
-3 -24 -83 -25 -174 -3 -996 -25 -1072 -29 -44 -2 -159 -5 -255 -7 l-175 -2
-3 142 c-2 126 -1 142 14 142 10 0 14 -5 11 -14 -3 -8 1 -20 9 -27 12 -10 20
-7 42 14 18 17 39 27 58 27 l29 -1 -42 -38 c-24 -21 -43 -41 -43 -45 0 -3 9
-10 19 -16 17 -9 28 -2 72 45 34 36 60 55 75 55 13 0 24 -3 24 -7 0 -5 -27
-35 -60 -68 -58 -58 -59 -60 -34 -63 21 -3 41 11 104 72 47 46 86 76 99 76 11
0 21 -2 21 -5 0 -3 -29 -36 -65 -72 -36 -36 -65 -68 -65 -71 0 -2 15 -2 33 2
21 4 55 29 103 77 52 52 77 70 93 67 19 -3 14 -11 -42 -71 l-63 -67 30 0 c24
0 45 14 102 71 52 52 77 70 93 67 19 -3 14 -11 -45 -70 l-68 -68 35 0 c30 0
45 10 109 75 53 53 82 75 99 75 23 0 19 -7 -42 -68 -37 -37 -67 -71 -67 -76 0
-4 15 -5 33 -1 21 5 56 30 102 76 49 47 78 69 95 69 22 0 17 -8 -45 -70 l-69
-70 35 0 c30 0 44 10 104 70 49 49 77 70 94 70 23 0 18 -7 -44 -70 l-69 -70
35 0 c30 0 44 10 107 75 42 44 81 75 92 75 11 0 20 -3 20 -7 0 -4 -30 -38 -67
-76 l-68 -68 40 6 c32 6 53 21 108 76 50 51 75 69 95 69 25 0 22 -5 -41 -68
-37 -37 -67 -70 -67 -73 0 -3 14 -3 31 -1 23 3 50 24 97 73 53 57 70 69 95 69
l31 0 -69 -70 -69 -70 33 0 c28 0 44 11 104 75 48 50 80 75 95 75 12 0 22 -3
22 -6z m124 -115 c-17 -19 -19 -19 -25 -2 -4 12 1 26 15 41 l21 24 3 -22 c2
-12 -4 -31 -14 -41z m6 -119 c-6 -11 -15 -18 -21 -15 -14 10 -11 37 9 58 17
19 17 19 20 -1 2 -12 -2 -30 -8 -42z m-15 -70 c4 -6 11 -8 16 -5 5 4 9 -1 9
-9 0 -12 -11 -16 -42 -16 -24 0 -347 -9 -718 -20 -826 -24 -820 -24 -820 -6 0
18 79 23 650 37 446 11 865 24 887 27 6 1 15 -3 18 -8z"/>
</g>
</svg>
