<?xml version="1.0" standalone="no"?>
<!DOCTYPE svg PUBLIC "-//W3C//DTD SVG 20010904//EN"
 "http://www.w3.org/TR/2001/REC-SVG-20010904/DTD/svg10.dtd">
<svg version="1.0" xmlns="http://www.w3.org/2000/svg"
 width="636.000000pt" height="636.000000pt" viewBox="0 0 636.000000 636.000000"
 preserveAspectRatio="xMidYMid meet">

<g transform="translate(0.000000,636.000000) scale(0.100000,-0.100000)"
fill="#000000" stroke="none">
<path d="M3122 6349 c-389 -50 -725 -342 -831 -721 -66 -237 -42 -487 69 -713
217 -440 725 -656 1195 -508 284 90 531 322 631 593 63 173 81 383 46 550 -64
310 -253 559 -529 699 -177 90 -384 126 -581 100z"/>
<path d="M1190 4881 l0 -339 53 -12 c232 -52 449 -162 610 -310 l67 -62 0 166
0 166 175 0 175 0 -51 63 c-72 89 -136 194 -182 300 -39 90 -97 296 -97 343
l0 24 -375 0 -375 0 0 -339z"/>
<path d="M4546 5173 c-29 -205 -137 -449 -271 -615 l-55 -68 125 0 125 0 0
-210 c0 -115 3 -210 6 -210 3 0 31 22 62 49 156 135 396 248 600 283 l72 12 0
403 0 403 -329 0 -329 0 -6 -47z"/>
<path d="M800 4231 c-197 -43 -364 -133 -500 -270 -47 -47 -102 -111 -122
-142 -165 -250 -214 -534 -143 -815 86 -339 359 -619 697 -713 237 -66 487
-42 713 69 440 217 656 725 508 1195 -77 244 -250 453 -475 575 -153 82 -261
110 -448 116 -117 3 -162 0 -230 -15z"/>
<path d="M5241 4099 c-251 -29 -503 -168 -658 -363 -80 -101 -165 -271 -195
-391 -31 -125 -31 -363 0 -477 77 -282 251 -506 494 -638 147 -79 261 -109
438 -117 155 -6 267 12 405 66 226 87 423 269 531 491 154 315 129 702 -67
991 -62 93 -182 213 -274 274 -142 95 -281 145 -450 165 -101 11 -119 11 -224
-1z"/>
<path d="M1838 2241 c-158 -135 -345 -232 -540 -280 l-108 -26 0 -367 0 -368
315 0 c302 0 315 1 315 19 0 35 51 195 90 284 50 113 150 264 241 360 l71 77
-151 0 -151 0 -2 184 -3 183 -77 -66z"/>
<path d="M4470 2046 l0 -106 -232 0 -231 0 59 -62 c167 -176 282 -384 332
-605 l17 -73 397 0 398 0 0 300 0 300 -27 6 c-281 60 -454 136 -622 273 -36
30 -72 58 -78 64 -10 7 -13 -13 -13 -97z"/>
<path d="M2929 1985 c-298 -57 -557 -244 -699 -507 -79 -147 -109 -261 -117
-438 -6 -155 12 -267 66 -405 87 -226 269 -423 491 -531 264 -129 588 -133
852 -11 262 121 470 364 547 639 66 237 42 487 -69 713 -129 263 -369 455
-655 526 -107 27 -313 34 -416 14z"/>
</g>
</svg>
